<mxfile host="app.diagrams.net" modified="2023-11-12T15:44:26.368Z" agent="Mozilla/5.0 (Windows NT 10.0; Win64; x64) AppleWebKit/537.36 (KHTML, like Gecko) Chrome/119.0.0.0 Safari/537.36" etag="i47gesAkCT1JE0KV_kRH" version="22.1.0" type="github">
  <diagram name="Страница — 1" id="uLxFyScLvAJwkSiYTCIQ">
    <mxGraphModel dx="1061" dy="544" grid="1" gridSize="10" guides="1" tooltips="1" connect="1" arrows="1" fold="1" page="1" pageScale="1" pageWidth="827" pageHeight="1169" math="0" shadow="0">
      <root>
        <mxCell id="0" />
        <mxCell id="1" parent="0" />
        <mxCell id="5lg8Dt5AC8RS0iVZjfRJ-1" value="" style="rounded=0;whiteSpace=wrap;html=1;" vertex="1" parent="1">
          <mxGeometry x="-112" y="84.38" width="142" height="85" as="geometry" />
        </mxCell>
        <mxCell id="5lg8Dt5AC8RS0iVZjfRJ-2" value="" style="shape=image;imageAspect=0;aspect=fixed;verticalLabelPosition=bottom;verticalAlign=top;image=data:image/png;base64,iVBORw0KGgoAAAANSUhEUgAAADQAAAA2CAYAAACIsLrgAAAAAXNSR0IArs4c6QAAAARnQU1BAACxjwv8YQUAAAAJcEhZcwAAEnQAABJ0Ad5mH3gAAARBSURBVGhD7ZltbFNVGMf/7e02u7Wdc9FgItCEZIMqYajLBDVuYQIuYDQSxEpDFCTghxkcMfiSQCIRg/LJD2oQjMtcFhNDIFlAFJm8GdnmBHWaaJyimy6yTVh7e9v7Us99zr3xTjr2kjTcjfNL7p7/fdpuPef53+eck3kyDEwjvFacNogBuR0xILfjii4XiUQoVhQnUeQzSHu9GUjWdH+bKEHSyCP9XKQAscbTpLMhLOd2rpnlotEoxQX+i6gJ9ZKev0GCv9RDGqckYNCLARn4+AeeklWg6TzXm8vzsf7DM/zGwfVdoRX3LaSYiA8jPnyZ9MyADsmaVBuPxwOf/URnQWIfCBYWkJ4ZlvDirhDpba9L+OwU/9wMv4Yb8zMI+oG311MKSjqDJ/bESa8pK8bjTV2knYim4HYmZLm1SxZQXHEnK/likkA1u/gSARR+wqZoBnuYjwA9r1jJLEhsrSnSuS6YB8xqIbl/5xZ0nThMOlTkg/8GCYWhEjz/bhvllKSMp2orSK+aE8RjjZ2knQjLuZ1JW+7N49xnp9kupIA3LKCVLRRp4OA3Hrza6rOSV+f2OQY+2Mntd/SghF9/GjnHftblYjGuk4qBR5+9SDo2rwRPtpwj7WRCFWo6do6uNW9c+YvcwvVtOSfP3D+b4tYXAiify+010AP8dpYkbjMKUXeIWXAUysrKePQN4O78v0hXvwQEbiEJfMq2Pn970R/PYG+7RqmkmsGBbq7r7yjCpo/aSTvJaYU6OjpGvXLFpCu0dW0dxd7fL9D6YCKxLU+ej80sI1ZejLr9V86gjb05NSv0/hc/kr7rZh0Ba01LqRo0nZ+N+tjapnrySZvnoV0dQ9emQlejubmZrh2NbDGeIN3d3VkHYyKags1YlltY+zPFsTD/erZvoLGlyX5NtXqLqdOW1lhv0K3d00PBMJbv+YX0pAc0Fru3j6/49pf+P5MdkLDceLErVFm1DjW1DaSzYehp6FrCuvuPtDIIw0ix11WkZL5OGYYGJfEH6SOfn8TZTn4ef6Q0jIffEhWaGNkqtHRDPwYvGVh+rxfbN/N1pa1dQcPuIdJOdDVlloQ9Nzp7XngFS0MK9m07Qfrw8e/x1dc9pFffGsaqd7iedhUSlhsvr73M56pq0TosWcotp6b+YT8zrAnIUNOXKKerSdYA+BnHiSL3s4aQpKahyH2Uy1BT+JN0a1svvuyyzkazw4jum6aWy1mF6jcGKN5TuRi1NctIr6zPw9BlDx6o6MOW1d9R7sz5IHbsnUXaiabKrCK61RT4TuSmkIz3Gg6RPnBMx8lOvnndFAljY4toClODnFnu6aif4qLK+Xiwuoq0HL9gPtnMTgmobCdgomsKaxBmsxiJpg6zt45+4hWWm6rkzHIrl/F/STi3+ak0j+a9nWO7G1gn7RGY+fEiLDeVEM+Q2xGWcztiQG5HDMjtiAG5G+BfkSXvGVq3GQUAAAAASUVORK5CYII=;" vertex="1" parent="1">
          <mxGeometry x="8" y="244.38" as="geometry" />
        </mxCell>
        <mxCell id="5lg8Dt5AC8RS0iVZjfRJ-3" style="edgeStyle=orthogonalEdgeStyle;rounded=0;orthogonalLoop=1;jettySize=auto;html=1;exitX=-0.003;exitY=0.113;exitDx=0;exitDy=0;exitPerimeter=0;dashed=1;dashPattern=12 12;startArrow=diamond;startFill=0;endArrow=oval;endFill=1;" edge="1" parent="1" source="5lg8Dt5AC8RS0iVZjfRJ-1">
          <mxGeometry relative="1" as="geometry">
            <mxPoint x="-117.6" y="93.98499999999999" as="sourcePoint" />
            <mxPoint x="-118" y="288.38" as="targetPoint" />
            <Array as="points">
              <mxPoint x="-140" y="94.38" />
              <mxPoint x="-140" y="288.38" />
            </Array>
          </mxGeometry>
        </mxCell>
        <mxCell id="5lg8Dt5AC8RS0iVZjfRJ-6" value="client" style="text;html=1;strokeColor=none;fillColor=none;align=center;verticalAlign=middle;whiteSpace=wrap;rounded=0;" vertex="1" parent="1">
          <mxGeometry x="-94.5" y="65.88" width="45" height="16.78" as="geometry" />
        </mxCell>
        <mxCell id="5lg8Dt5AC8RS0iVZjfRJ-7" value="idclient:INTEGER" style="text;html=1;strokeColor=none;fillColor=none;align=left;verticalAlign=middle;whiteSpace=wrap;rounded=0;" vertex="1" parent="1">
          <mxGeometry x="-112" y="82.66" width="100" height="16.78" as="geometry" />
        </mxCell>
        <mxCell id="5lg8Dt5AC8RS0iVZjfRJ-8" value="phone:VARCHAR(15)" style="text;html=1;strokeColor=none;fillColor=none;align=left;verticalAlign=middle;whiteSpace=wrap;rounded=0;" vertex="1" parent="1">
          <mxGeometry x="-110" y="151.72" width="120" height="16.78" as="geometry" />
        </mxCell>
        <mxCell id="5lg8Dt5AC8RS0iVZjfRJ-9" value="" style="endArrow=none;html=1;rounded=0;" edge="1" parent="1">
          <mxGeometry width="50" height="50" relative="1" as="geometry">
            <mxPoint x="-112" y="101.38" as="sourcePoint" />
            <mxPoint x="30" y="101.38" as="targetPoint" />
          </mxGeometry>
        </mxCell>
        <mxCell id="5lg8Dt5AC8RS0iVZjfRJ-10" value="surname:VARCHAR(20)" style="text;html=1;strokeColor=none;fillColor=none;align=left;verticalAlign=middle;whiteSpace=wrap;rounded=0;" vertex="1" parent="1">
          <mxGeometry x="-110" y="101.38" width="130" height="16.78" as="geometry" />
        </mxCell>
        <mxCell id="5lg8Dt5AC8RS0iVZjfRJ-11" value="name:VARCHAR(20)" style="text;html=1;strokeColor=none;fillColor=none;align=left;verticalAlign=middle;whiteSpace=wrap;rounded=0;" vertex="1" parent="1">
          <mxGeometry x="-110" y="118.16" width="130" height="16.78" as="geometry" />
        </mxCell>
        <mxCell id="5lg8Dt5AC8RS0iVZjfRJ-12" value="patronym:VARCHAR(20)" style="text;html=1;strokeColor=none;fillColor=none;align=left;verticalAlign=middle;whiteSpace=wrap;rounded=0;" vertex="1" parent="1">
          <mxGeometry x="-110" y="134.94" width="140" height="16.78" as="geometry" />
        </mxCell>
        <mxCell id="5lg8Dt5AC8RS0iVZjfRJ-13" value="" style="rounded=0;whiteSpace=wrap;html=1;" vertex="1" parent="1">
          <mxGeometry x="-114.25" y="211.13" width="134.25" height="85" as="geometry" />
        </mxCell>
        <mxCell id="5lg8Dt5AC8RS0iVZjfRJ-16" value="automobile" style="text;html=1;strokeColor=none;fillColor=none;align=center;verticalAlign=middle;whiteSpace=wrap;rounded=0;" vertex="1" parent="1">
          <mxGeometry x="-96.75" y="192.63" width="74.75" height="16.78" as="geometry" />
        </mxCell>
        <mxCell id="5lg8Dt5AC8RS0iVZjfRJ-17" value="idautomobile:INTEGER" style="text;html=1;strokeColor=none;fillColor=none;align=left;verticalAlign=middle;whiteSpace=wrap;rounded=0;" vertex="1" parent="1">
          <mxGeometry x="-114.25" y="210.56" width="132.25" height="16.78" as="geometry" />
        </mxCell>
        <mxCell id="5lg8Dt5AC8RS0iVZjfRJ-18" value="idclient:INTEGER(FK)" style="text;html=1;strokeColor=none;fillColor=none;align=left;verticalAlign=middle;whiteSpace=wrap;rounded=0;" vertex="1" parent="1">
          <mxGeometry x="-112.25" y="278.47" width="122.25" height="16.78" as="geometry" />
        </mxCell>
        <mxCell id="5lg8Dt5AC8RS0iVZjfRJ-19" value="" style="endArrow=none;html=1;rounded=0;" edge="1" parent="1">
          <mxGeometry width="50" height="50" relative="1" as="geometry">
            <mxPoint x="-114.25" y="228.13" as="sourcePoint" />
            <mxPoint x="20" y="228.13" as="targetPoint" />
          </mxGeometry>
        </mxCell>
        <mxCell id="5lg8Dt5AC8RS0iVZjfRJ-20" value="mark" style="text;html=1;strokeColor=none;fillColor=none;align=left;verticalAlign=middle;whiteSpace=wrap;rounded=0;" vertex="1" parent="1">
          <mxGeometry x="-112.25" y="228.13" width="40.25" height="16.78" as="geometry" />
        </mxCell>
        <mxCell id="5lg8Dt5AC8RS0iVZjfRJ-21" value="model" style="text;html=1;strokeColor=none;fillColor=none;align=left;verticalAlign=middle;whiteSpace=wrap;rounded=0;" vertex="1" parent="1">
          <mxGeometry x="-112.25" y="244.91" width="50.25" height="16.78" as="geometry" />
        </mxCell>
        <mxCell id="5lg8Dt5AC8RS0iVZjfRJ-22" value="gosnumber" style="text;html=1;strokeColor=none;fillColor=none;align=left;verticalAlign=middle;whiteSpace=wrap;rounded=0;" vertex="1" parent="1">
          <mxGeometry x="-112.25" y="261.69" width="70.25" height="16.78" as="geometry" />
        </mxCell>
        <mxCell id="5lg8Dt5AC8RS0iVZjfRJ-23" value="" style="rounded=0;whiteSpace=wrap;html=1;" vertex="1" parent="1">
          <mxGeometry x="410" y="88.5" width="140" height="153.22" as="geometry" />
        </mxCell>
        <mxCell id="5lg8Dt5AC8RS0iVZjfRJ-24" style="edgeStyle=orthogonalEdgeStyle;rounded=0;orthogonalLoop=1;jettySize=auto;html=1;exitX=-0.002;exitY=0.062;exitDx=0;exitDy=0;entryX=0;entryY=0.5;entryDx=0;entryDy=0;startArrow=diamond;startFill=0;endArrow=oval;endFill=1;dashed=1;dashPattern=12 12;exitPerimeter=0;" edge="1" parent="1" source="5lg8Dt5AC8RS0iVZjfRJ-23">
          <mxGeometry relative="1" as="geometry">
            <mxPoint x="409.06" y="98" as="sourcePoint" />
            <mxPoint x="235.99999999999994" y="259.24999999999994" as="targetPoint" />
            <Array as="points">
              <mxPoint x="396" y="98" />
              <mxPoint x="396" y="60" />
              <mxPoint x="186" y="60" />
              <mxPoint x="186" y="259" />
            </Array>
          </mxGeometry>
        </mxCell>
        <mxCell id="5lg8Dt5AC8RS0iVZjfRJ-27" value="employe" style="text;html=1;strokeColor=none;fillColor=none;align=center;verticalAlign=middle;whiteSpace=wrap;rounded=0;" vertex="1" parent="1">
          <mxGeometry x="427.5" y="70" width="62.5" height="16.78" as="geometry" />
        </mxCell>
        <mxCell id="5lg8Dt5AC8RS0iVZjfRJ-28" value="idemployee:INTEGER" style="text;html=1;strokeColor=none;fillColor=none;align=left;verticalAlign=middle;whiteSpace=wrap;rounded=0;" vertex="1" parent="1">
          <mxGeometry x="410" y="88.5" width="130" height="16.78" as="geometry" />
        </mxCell>
        <mxCell id="5lg8Dt5AC8RS0iVZjfRJ-29" value="номер телефона" style="text;html=1;strokeColor=none;fillColor=none;align=left;verticalAlign=middle;whiteSpace=wrap;rounded=0;" vertex="1" parent="1">
          <mxGeometry x="412" y="155.84" width="102.5" height="16.78" as="geometry" />
        </mxCell>
        <mxCell id="5lg8Dt5AC8RS0iVZjfRJ-30" value="" style="endArrow=none;html=1;rounded=0;" edge="1" parent="1">
          <mxGeometry width="50" height="50" relative="1" as="geometry">
            <mxPoint x="410" y="105.5" as="sourcePoint" />
            <mxPoint x="520" y="105.5" as="targetPoint" />
          </mxGeometry>
        </mxCell>
        <mxCell id="5lg8Dt5AC8RS0iVZjfRJ-31" value="фамилия" style="text;html=1;strokeColor=none;fillColor=none;align=left;verticalAlign=middle;whiteSpace=wrap;rounded=0;" vertex="1" parent="1">
          <mxGeometry x="412" y="105.5" width="60" height="16.78" as="geometry" />
        </mxCell>
        <mxCell id="5lg8Dt5AC8RS0iVZjfRJ-32" value="имя" style="text;html=1;strokeColor=none;fillColor=none;align=left;verticalAlign=middle;whiteSpace=wrap;rounded=0;" vertex="1" parent="1">
          <mxGeometry x="412" y="122.28" width="30" height="16.78" as="geometry" />
        </mxCell>
        <mxCell id="5lg8Dt5AC8RS0iVZjfRJ-33" value="отчество" style="text;html=1;strokeColor=none;fillColor=none;align=left;verticalAlign=middle;whiteSpace=wrap;rounded=0;" vertex="1" parent="1">
          <mxGeometry x="412" y="139.06" width="58" height="16.78" as="geometry" />
        </mxCell>
        <mxCell id="5lg8Dt5AC8RS0iVZjfRJ-34" value="номер квартиры" style="text;html=1;strokeColor=none;fillColor=none;align=left;verticalAlign=middle;whiteSpace=wrap;rounded=0;" vertex="1" parent="1">
          <mxGeometry x="412" y="222.96000000000004" width="102.5" height="16.78" as="geometry" />
        </mxCell>
        <mxCell id="5lg8Dt5AC8RS0iVZjfRJ-35" value="город" style="text;html=1;strokeColor=none;fillColor=none;align=left;verticalAlign=middle;whiteSpace=wrap;rounded=0;" vertex="1" parent="1">
          <mxGeometry x="412" y="172.62" width="60" height="16.78" as="geometry" />
        </mxCell>
        <mxCell id="5lg8Dt5AC8RS0iVZjfRJ-36" value="улица" style="text;html=1;strokeColor=none;fillColor=none;align=left;verticalAlign=middle;whiteSpace=wrap;rounded=0;" vertex="1" parent="1">
          <mxGeometry x="412" y="189.40000000000003" width="30" height="16.78" as="geometry" />
        </mxCell>
        <mxCell id="5lg8Dt5AC8RS0iVZjfRJ-37" value="номер дома" style="text;html=1;strokeColor=none;fillColor=none;align=left;verticalAlign=middle;whiteSpace=wrap;rounded=0;" vertex="1" parent="1">
          <mxGeometry x="412" y="206.18" width="78" height="16.78" as="geometry" />
        </mxCell>
        <mxCell id="5lg8Dt5AC8RS0iVZjfRJ-38" style="edgeStyle=orthogonalEdgeStyle;rounded=0;orthogonalLoop=1;jettySize=auto;html=1;exitX=0.5;exitY=1;exitDx=0;exitDy=0;" edge="1" parent="1" source="5lg8Dt5AC8RS0iVZjfRJ-23" target="5lg8Dt5AC8RS0iVZjfRJ-23">
          <mxGeometry relative="1" as="geometry" />
        </mxCell>
        <mxCell id="5lg8Dt5AC8RS0iVZjfRJ-39" value="" style="rounded=0;whiteSpace=wrap;html=1;" vertex="1" parent="1">
          <mxGeometry x="240" y="216.75" width="160" height="85" as="geometry" />
        </mxCell>
        <mxCell id="5lg8Dt5AC8RS0iVZjfRJ-42" value="provided_service" style="text;html=1;strokeColor=none;fillColor=none;align=center;verticalAlign=middle;whiteSpace=wrap;rounded=0;" vertex="1" parent="1">
          <mxGeometry x="270" y="198.25" width="100" height="16.78" as="geometry" />
        </mxCell>
        <mxCell id="5lg8Dt5AC8RS0iVZjfRJ-43" value="idprovided" style="text;html=1;strokeColor=none;fillColor=none;align=left;verticalAlign=middle;whiteSpace=wrap;rounded=0;" vertex="1" parent="1">
          <mxGeometry x="239.5" y="216.75" width="140.5" height="16.78" as="geometry" />
        </mxCell>
        <mxCell id="5lg8Dt5AC8RS0iVZjfRJ-44" value="datatime:DATE" style="text;html=1;strokeColor=none;fillColor=none;align=left;verticalAlign=middle;whiteSpace=wrap;rounded=0;" vertex="1" parent="1">
          <mxGeometry x="242" y="284.09000000000003" width="102.5" height="16.78" as="geometry" />
        </mxCell>
        <mxCell id="5lg8Dt5AC8RS0iVZjfRJ-45" value="" style="endArrow=none;html=1;rounded=0;" edge="1" parent="1">
          <mxGeometry width="50" height="50" relative="1" as="geometry">
            <mxPoint x="240" y="233.75000000000003" as="sourcePoint" />
            <mxPoint x="400" y="233.75000000000003" as="targetPoint" />
          </mxGeometry>
        </mxCell>
        <mxCell id="5lg8Dt5AC8RS0iVZjfRJ-46" value="idservice:INTEGER(FK)" style="text;html=1;strokeColor=none;fillColor=none;align=left;verticalAlign=middle;whiteSpace=wrap;rounded=0;" vertex="1" parent="1">
          <mxGeometry x="242" y="233.75" width="138" height="16.78" as="geometry" />
        </mxCell>
        <mxCell id="5lg8Dt5AC8RS0iVZjfRJ-47" value="idemployee:INTEGER(FK)" style="text;html=1;strokeColor=none;fillColor=none;align=left;verticalAlign=middle;whiteSpace=wrap;rounded=0;" vertex="1" parent="1">
          <mxGeometry x="242" y="250.53" width="148" height="16.78" as="geometry" />
        </mxCell>
        <mxCell id="5lg8Dt5AC8RS0iVZjfRJ-48" value="idautomobile:INTEGER(FK)" style="text;html=1;strokeColor=none;fillColor=none;align=left;verticalAlign=middle;whiteSpace=wrap;rounded=0;" vertex="1" parent="1">
          <mxGeometry x="242" y="267.31" width="148" height="16.78" as="geometry" />
        </mxCell>
        <mxCell id="5lg8Dt5AC8RS0iVZjfRJ-49" value="" style="rounded=0;whiteSpace=wrap;html=1;" vertex="1" parent="1">
          <mxGeometry x="247.5" y="88.5" width="122.5" height="85" as="geometry" />
        </mxCell>
        <mxCell id="5lg8Dt5AC8RS0iVZjfRJ-52" value="service" style="text;html=1;strokeColor=none;fillColor=none;align=center;verticalAlign=middle;whiteSpace=wrap;rounded=0;" vertex="1" parent="1">
          <mxGeometry x="265" y="70" width="45" height="16.78" as="geometry" />
        </mxCell>
        <mxCell id="5lg8Dt5AC8RS0iVZjfRJ-53" value="idservice:INTEGER" style="text;html=1;strokeColor=none;fillColor=none;align=left;verticalAlign=middle;whiteSpace=wrap;rounded=0;" vertex="1" parent="1">
          <mxGeometry x="247.5" y="87.78" width="102.5" height="16.78" as="geometry" />
        </mxCell>
        <mxCell id="5lg8Dt5AC8RS0iVZjfRJ-54" value="тип" style="text;html=1;strokeColor=none;fillColor=none;align=left;verticalAlign=middle;whiteSpace=wrap;rounded=0;" vertex="1" parent="1">
          <mxGeometry x="249.5" y="155.84" width="32" height="16.78" as="geometry" />
        </mxCell>
        <mxCell id="5lg8Dt5AC8RS0iVZjfRJ-55" value="" style="endArrow=none;html=1;rounded=0;" edge="1" parent="1">
          <mxGeometry width="50" height="50" relative="1" as="geometry">
            <mxPoint x="247.5" y="105.5" as="sourcePoint" />
            <mxPoint x="347.5" y="105.5" as="targetPoint" />
          </mxGeometry>
        </mxCell>
        <mxCell id="5lg8Dt5AC8RS0iVZjfRJ-56" value="название" style="text;html=1;strokeColor=none;fillColor=none;align=left;verticalAlign=middle;whiteSpace=wrap;rounded=0;" vertex="1" parent="1">
          <mxGeometry x="249.5" y="105.5" width="60" height="16.78" as="geometry" />
        </mxCell>
        <mxCell id="5lg8Dt5AC8RS0iVZjfRJ-57" value="длительность" style="text;html=1;strokeColor=none;fillColor=none;align=left;verticalAlign=middle;whiteSpace=wrap;rounded=0;" vertex="1" parent="1">
          <mxGeometry x="249.5" y="122.28" width="82" height="16.78" as="geometry" />
        </mxCell>
        <mxCell id="5lg8Dt5AC8RS0iVZjfRJ-58" value="стоимость" style="text;html=1;strokeColor=none;fillColor=none;align=left;verticalAlign=middle;whiteSpace=wrap;rounded=0;" vertex="1" parent="1">
          <mxGeometry x="249.5" y="139.06" width="58" height="16.78" as="geometry" />
        </mxCell>
        <mxCell id="5lg8Dt5AC8RS0iVZjfRJ-59" style="edgeStyle=orthogonalEdgeStyle;rounded=0;orthogonalLoop=1;jettySize=auto;html=1;startArrow=diamond;startFill=0;endArrow=oval;endFill=1;dashed=1;dashPattern=12 12;exitX=-0.002;exitY=0.119;exitDx=0;exitDy=0;exitPerimeter=0;" edge="1" parent="1" source="5lg8Dt5AC8RS0iVZjfRJ-49">
          <mxGeometry relative="1" as="geometry">
            <mxPoint x="230" y="90" as="sourcePoint" />
            <mxPoint x="236" y="243" as="targetPoint" />
            <Array as="points">
              <mxPoint x="216" y="99" />
              <mxPoint x="216" y="243" />
            </Array>
          </mxGeometry>
        </mxCell>
        <mxCell id="5lg8Dt5AC8RS0iVZjfRJ-60" style="edgeStyle=orthogonalEdgeStyle;rounded=0;orthogonalLoop=1;jettySize=auto;html=1;exitX=1;exitY=0.1;exitDx=0;exitDy=0;startArrow=diamond;startFill=0;endArrow=oval;endFill=1;dashed=1;dashPattern=12 12;exitPerimeter=0;" edge="1" parent="1" source="5lg8Dt5AC8RS0iVZjfRJ-13">
          <mxGeometry relative="1" as="geometry">
            <mxPoint x="146.44899999999998" y="215.16499999999996" as="sourcePoint" />
            <mxPoint x="236" y="277" as="targetPoint" />
            <Array as="points">
              <mxPoint x="40" y="220" />
              <mxPoint x="166" y="220" />
              <mxPoint x="166" y="277" />
            </Array>
          </mxGeometry>
        </mxCell>
      </root>
    </mxGraphModel>
  </diagram>
</mxfile>
